<?xml version="1.0" standalone="no"?>
<!DOCTYPE svg PUBLIC "-//W3C//DTD SVG 20010904//EN"
 "http://www.w3.org/TR/2001/REC-SVG-20010904/DTD/svg10.dtd">
<svg version="1.0" xmlns="http://www.w3.org/2000/svg"
 width="700.000000pt" height="700.000000pt" viewBox="0 0 700.000000 700.000000"
 preserveAspectRatio="xMidYMid meet">
<metadata>
Created by potrace 1.14, written by Peter Selinger 2001-2017
</metadata>
<g transform="translate(0.000000,700.000000) scale(0.100000,-0.100000)"
fill="#000000" stroke="none">
<path d="M3315 5654 c-33 -7 -73 -15 -90 -17 -16 -3 -79 -14 -140 -26 -60 -11
-126 -23 -145 -26 -19 -3 -53 -10 -75 -15 -22 -5 -56 -11 -75 -14 -19 -3 -98
-17 -175 -31 -77 -14 -176 -33 -220 -41 -80 -14 -108 -19 -155 -29 -14 -2 -38
-7 -55 -10 -16 -3 -43 -7 -60 -10 -16 -4 -89 -17 -160 -30 -179 -33 -157 -29
-385 -71 -222 -41 -294 -55 -320 -59 -14 -2 -50 -8 -80 -14 -30 -6 -66 -12
-80 -15 -41 -7 -683 -125 -710 -131 -14 -2 -37 -7 -52 -10 -15 -4 -41 -8 -58
-10 -18 -3 -39 -7 -49 -9 -9 -3 -29 -7 -46 -10 -16 -2 -50 -8 -75 -11 -80 -13
-75 9 -75 -304 0 -155 2 -281 5 -281 3 0 23 4 45 9 22 5 58 12 80 15 124 16
195 27 240 36 28 6 70 12 95 15 25 3 83 12 130 20 47 8 105 17 130 20 25 3 52
8 60 10 8 2 33 6 55 10 22 3 67 10 100 15 33 5 78 12 100 15 45 7 78 13 115
20 14 2 41 7 60 9 28 4 193 29 390 61 14 2 158 25 320 50 162 25 306 48 320
51 14 2 45 6 70 9 25 3 52 8 60 10 14 4 259 43 308 49 12 2 22 0 23 -3 1 -3 2
-800 3 -1771 l1 -1765 313 0 c183 0 316 4 319 9 7 10 9 4284 2 4289 -2 2 -31
-3 -64 -9z"/>
<path d="M3590 5340 l0 -328 38 -7 c20 -4 51 -9 67 -12 17 -2 68 -10 115 -18
47 -8 105 -17 130 -20 25 -3 70 -10 100 -15 81 -14 111 -19 154 -25 21 -4 46
-8 55 -10 9 -1 41 -6 71 -10 30 -4 64 -9 75 -11 23 -5 211 -35 240 -39 11 -1
63 -10 115 -18 52 -9 113 -18 135 -22 23 -3 52 -7 65 -10 14 -3 43 -7 65 -10
22 -3 51 -7 65 -9 43 -8 224 -37 250 -41 37 -5 113 -17 130 -20 8 -2 37 -6 64
-9 27 -4 85 -13 130 -21 44 -7 101 -17 126 -20 25 -3 110 -17 190 -30 80 -13
161 -26 180 -29 19 -3 96 -15 170 -26 74 -12 144 -23 155 -25 11 -1 40 -5 65
-9 25 -4 56 -9 70 -11 28 -5 44 -8 185 -30 55 -9 109 -18 121 -19 20 -4 21 -2
21 280 0 319 8 286 -72 298 -16 3 -39 7 -50 9 -11 3 -40 8 -65 12 -25 4 -54 9
-65 11 -11 2 -33 7 -50 9 -16 3 -75 14 -130 25 -55 10 -212 39 -350 64 -137
26 -261 48 -275 51 -14 3 -63 12 -110 20 -47 8 -96 17 -110 20 -14 3 -50 9
-80 15 -30 6 -66 12 -80 15 -14 3 -50 9 -80 15 -30 6 -66 12 -80 15 -31 6
-131 25 -165 30 -14 3 -52 10 -85 15 -33 6 -72 13 -87 16 -16 3 -98 18 -183
34 -216 40 -234 43 -245 45 -5 2 -26 5 -45 9 -19 3 -109 19 -200 36 -91 17
-178 33 -195 36 -16 3 -66 12 -110 20 -44 8 -127 24 -185 34 -58 11 -138 25
-177 33 l-73 14 0 -327z"/>
<path d="M3590 4154 c0 -333 -11 -298 100 -309 36 -4 76 -8 90 -10 14 -2 50
-6 80 -10 30 -3 62 -8 70 -10 8 -2 44 -6 80 -10 36 -3 75 -7 85 -9 11 -2 47
-7 80 -11 33 -4 71 -8 85 -10 14 -2 50 -6 80 -10 30 -3 66 -8 80 -10 14 -2 48
-7 75 -10 51 -6 93 -11 155 -19 19 -2 62 -8 95 -11 33 -4 69 -9 80 -11 11 -2
49 -6 85 -9 36 -4 72 -8 80 -10 8 -2 42 -7 75 -10 33 -4 71 -8 85 -10 14 -3
48 -7 75 -10 28 -3 61 -8 75 -10 14 -2 50 -7 80 -10 30 -3 66 -7 80 -10 14 -2
50 -7 80 -10 30 -4 66 -8 80 -10 27 -4 97 -12 175 -20 28 -3 61 -7 75 -10 14
-3 46 -7 72 -10 55 -6 600 -74 643 -80 40 -5 186 -23 255 -31 30 -3 65 -7 77
-9 l21 -3 -1 259 c0 142 -3 259 -6 260 -3 0 -15 2 -26 4 -11 2 -40 7 -65 10
-25 3 -70 10 -100 15 -30 5 -77 12 -105 15 -27 3 -57 8 -65 10 -8 2 -37 7 -65
10 -27 4 -59 8 -70 10 -11 1 -45 6 -75 9 -30 4 -62 9 -70 11 -8 2 -39 7 -69
10 -30 4 -62 8 -72 10 -9 2 -39 6 -66 10 -26 4 -59 9 -73 11 -14 2 -45 6 -70
10 -25 3 -70 9 -100 14 -56 9 -84 13 -175 25 -27 4 -61 9 -75 11 -37 6 -218
32 -275 39 -27 4 -57 8 -65 10 -8 2 -37 7 -65 10 -27 3 -75 10 -105 15 -30 5
-77 12 -105 15 -27 4 -57 8 -65 10 -8 2 -40 7 -70 10 -30 3 -77 10 -105 15
-27 5 -72 12 -100 15 -60 8 -110 15 -139 21 -11 2 -48 7 -81 10 -33 4 -63 8
-66 10 -3 2 -34 6 -70 10 -35 3 -67 8 -70 10 -4 2 -31 6 -60 9 -30 4 -79 10
-109 15 -30 6 -80 12 -110 16 -30 3 -57 8 -60 9 -3 2 -33 7 -65 10 -33 4 -95
13 -137 19 l-78 13 0 -293z"/>
<path d="M1990 4245 c-47 -8 -105 -17 -130 -20 -25 -3 -52 -8 -60 -10 -8 -2
-42 -7 -75 -10 -32 -4 -62 -8 -65 -10 -3 -1 -36 -6 -75 -10 -38 -4 -72 -8 -75
-10 -3 -1 -27 -6 -55 -9 -53 -7 -75 -10 -140 -21 -22 -3 -56 -8 -75 -10 -19
-2 -53 -7 -75 -10 -69 -11 -86 -13 -270 -40 -99 -14 -191 -28 -205 -30 -35 -5
-109 -16 -145 -21 -30 -4 -157 -22 -205 -29 -14 -2 -47 -7 -75 -11 -27 -3 -52
-7 -55 -9 -3 -2 -32 -6 -65 -10 -33 -3 -69 -8 -80 -10 -11 -2 -22 -4 -25 -4
-7 -1 -6 -508 1 -515 2 -3 34 -1 69 4 36 4 85 11 110 14 25 3 101 12 170 21
69 9 143 18 165 20 22 3 58 7 80 10 22 3 166 21 320 40 154 19 296 37 315 40
19 2 59 7 89 10 30 4 61 8 70 10 9 1 45 6 81 10 36 3 76 8 90 10 56 8 108 15
160 20 30 3 62 8 70 10 8 2 44 7 80 10 85 9 118 13 160 20 l35 6 0 277 c0 238
-2 277 -15 278 -8 1 -53 -4 -100 -11z"/>
<path d="M3595 3218 c-3 -7 -4 -148 -3 -313 l3 -300 35 -2 c19 0 73 -4 120 -7
47 -4 121 -9 165 -11 44 -3 112 -8 150 -10 39 -3 104 -7 146 -10 135 -8 253
-15 304 -20 28 -2 97 -7 155 -10 58 -4 134 -8 170 -11 36 -2 106 -7 155 -10
50 -3 110 -7 135 -9 25 -2 97 -6 160 -10 63 -3 135 -8 160 -10 25 -3 88 -7
140 -10 108 -6 195 -12 325 -21 50 -3 113 -7 140 -9 75 -4 242 -15 310 -20 33
-3 105 -7 160 -11 55 -3 120 -7 145 -9 25 -2 95 -6 156 -10 l111 -7 0 266 0
266 -31 2 c-39 2 -65 4 -141 11 -96 10 -423 40 -565 52 -36 3 -81 8 -100 10
-19 3 -69 7 -110 11 -41 3 -88 7 -105 9 -16 1 -70 6 -120 10 -49 4 -97 8 -105
10 -8 2 -53 6 -100 10 -47 3 -101 8 -120 10 -19 2 -66 7 -105 10 -38 3 -91 8
-117 11 -25 2 -72 6 -105 9 -32 3 -80 7 -108 10 -27 2 -75 7 -105 10 -30 3
-75 7 -100 9 -25 3 -81 7 -125 11 -44 3 -91 8 -105 10 -14 2 -63 7 -110 10
-47 3 -101 8 -120 10 -64 7 -134 15 -200 20 -36 3 -85 7 -110 10 -25 3 -74 7
-110 10 -36 3 -81 7 -100 10 -19 2 -73 7 -120 11 -47 3 -88 8 -93 11 -4 2 -9
-2 -12 -9z"/>
<path d="M2057 3104 c-1 -1 -38 -5 -82 -9 -44 -3 -96 -8 -115 -10 -40 -5 -126
-13 -220 -20 -36 -2 -81 -7 -100 -9 -19 -3 -71 -8 -115 -12 -44 -3 -93 -8
-110 -9 -16 -2 -68 -6 -115 -10 -47 -3 -96 -8 -110 -10 -14 -2 -61 -7 -105
-10 -44 -4 -93 -9 -110 -10 -16 -2 -68 -6 -115 -10 -47 -3 -92 -8 -100 -10 -8
-2 -55 -7 -105 -10 -49 -4 -101 -8 -115 -10 -14 -2 -61 -7 -105 -10 -44 -3
-96 -8 -115 -10 -19 -3 -66 -8 -105 -11 -38 -3 -72 -8 -75 -11 -3 -2 -5 -122
-5 -265 l0 -260 115 7 c63 3 135 8 160 10 25 2 94 6 154 10 60 3 128 8 150 10
23 2 91 6 151 10 61 3 133 8 160 10 28 2 95 7 150 10 125 7 245 15 310 20 28
2 95 7 150 10 55 3 127 8 160 10 33 3 101 7 150 10 190 11 250 17 255 25 4 7
5 552 1 570 -1 5 -39 8 -44 4z"/>
<path d="M3603 2003 c-10 -4 -13 -77 -13 -321 l0 -317 1673 0 1672 0 1 253 1
252 -51 1 c-28 0 -73 2 -101 4 -27 1 -135 6 -240 10 -104 4 -224 8 -265 10
-41 2 -149 6 -240 9 -91 4 -205 9 -255 11 -49 2 -162 7 -250 10 -88 4 -198 8
-245 10 -47 2 -152 7 -235 10 -330 13 -394 16 -485 20 -52 2 -169 7 -260 10
-91 3 -203 8 -250 10 -47 3 -163 7 -259 10 -96 3 -177 7 -180 9 -3 2 -12 1
-18 -1z"/>
<path d="M1897 1944 c-1 -1 -90 -5 -197 -9 -107 -3 -226 -8 -265 -10 -38 -2
-144 -7 -235 -10 -91 -3 -208 -7 -260 -10 -52 -3 -156 -7 -230 -10 -74 -3
-184 -7 -245 -10 -60 -2 -180 -7 -264 -10 -85 -4 -157 -8 -161 -10 -4 -3 -6
-476 -1 -495 0 -3 466 -5 1034 -5 l1032 0 0 293 0 293 -103 -3 c-57 -2 -104
-4 -105 -4z"/>
</g>
</svg>
